<?xml version="1.0" encoding="UTF-8"?>
<svg id="Layer_1" xmlns="http://www.w3.org/2000/svg" version="1.1" viewBox="0 0 136.4 136.4">
  <!-- Generator: Adobe Illustrator 29.6.1, SVG Export Plug-In . SVG Version: 2.1.1 Build 9)  -->
  <defs>
    <style>
      .st0 {
        fill: #fff;
      }
    </style>
  </defs>
  <path class="st0" d="M101.9,127.5c-31.4,17.8-71.1,7.8-90.6-21.9l33.8-19.1c8.8,11.3,25,14.6,37.8,7.4,12.8-7.3,18.1-22.8,13.1-36.2l33.8-19.1c15.4,32,3.6,71.1-27.9,88.9Z"/>
  <path class="st0" d="M54.4,76c-4.4-7.7-1.7-17.4,6-21.8s17.4-1.7,21.8,6c4.4,7.7,1.7,17.4-6,21.8-7.7,4.4-17.4,1.7-21.8-6Z"/>
  <path class="st0" d="M10.2,88.1C.7,60.5,12.1,29.4,38,14.7,64,0,96.5,6.4,115.3,28.6l-22.5,12.7c-11.4-10.3-28.7-12.5-42.4-4.8-13.7,7.8-20.7,23.7-17.7,38.8l-22.5,12.7M6.8,97.8l33.8-19.1c-5.1-13.4.3-28.9,13.1-36.2,12.8-7.3,28.8-3.8,37.8,7.4l33.7-19.1C105.6,1,66.1-8.9,34.6,8.9,3.2,26.7-8.7,65.8,6.7,97.8h.1Z"/>
</svg>